PathFileType  4	(X/Y/Z) C:\Users\antoi\Documents\MyRepositories\mobilecap\ResultsAnalysis
DataRate	CameraRate	NumFrames	NumMarkers	Units	OrigDataRate	OrigDataStartFrame	OrigNumFrames
100.0	100.0	7	51	mm	100.0	190	216
Frame#	Time	r_knee			r_shank_antsup			r_ankle			r_calc			r_5meta			r_toe			L_knee			L_shank_antsup			L_ankle			L_calc			L_5meta			L_toe			r_sh2			r_sh3			r_sh4			L_sh2			L_sh3			r_thigh1			r_thigh2			r_thigh3			r_thigh4			r_thigh5			L_thigh1			L_thigh2			L_thigh3			L_thigh4			r.ASIS			r.PSIS			L.ASIS			L.PSIS			C7			R_Shoulder			L_Shoulder			R_Sternum			L_Sternum			R_humerus			R_elbow_med			R_elbow_lat			R_forearm			R_wrist_radius			R_wrist_ulna			L_humerus			L_elbow_med			L_elbow_lat			L_forearm			L_wrist_radius			L_wrist_ulna			R_HJC			L_HJC			R_HJC_reg			L_HJC_reg			
		X1	Y1	Z1	X2	Y2	Z2	X3	Y3	Z3	X4	Y4	Z4	X5	Y5	Z5	X6	Y6	Z6	X7	Y7	Z7	X8	Y8	Z8	X9	Y9	Z9	X10	Y10	Z10	X11	Y11	Z11	X12	Y12	Z12	X13	Y13	Z13	X14	Y14	Z14	X15	Y15	Z15	X16	Y16	Z16	X17	Y17	Z17	X18	Y18	Z18	X19	Y19	Z19	X20	Y20	Z20	X21	Y21	Z21	X22	Y22	Z22	X23	Y23	Z23	X24	Y24	Z24	X25	Y25	Z25	X26	Y26	Z26	X27	Y27	Z27	X28	Y28	Z28	X29	Y29	Z29	X30	Y30	Z30	X31	Y31	Z31	X32	Y32	Z32	X33	Y33	Z33	X34	Y34	Z34	X35	Y35	Z35	X36	Y36	Z36	X37	Y37	Z37	X38	Y38	Z38	X39	Y39	Z39	X40	Y40	Z40	X41	Y41	Z41	X42	Y42	Z42	X43	Y43	Z43	X44	Y44	Z44	X45	Y45	Z45	X46	Y46	Z46	X47	Y47	Z47	X48	Y48	Z48	X49	Y49	Z49	X50	Y50	Z50	X51	Y51	Z51	

190	1.89000000	-106.32824	644.11819	-408.09527	-103.21704	571.84849	-381.45334	-156.61822	266.19156	-407.20002	-227.60442	246.74854	-448.66765	-68.00739	188.55852	-381.11452	-18.86168	203.49638	-432.45037	-86.60484	654.02381	-754.14202	-67.80332	583.34605	-761.29465	-175.87004	291.17933	-729.92553	-248.43288	275.85246	-677.02242	-103.02279	209.74008	-755.68527	-45.22124	222.46783	-707.46841	-117.97322	459.90453	-372.63764	-174.57214	579.67491	-400.06549	-196.58526	465.24757	-396.85835	-152.68341	612.32901	-768.28014	-179.42968	493.23404	-768.09813	-79.42867	955.46801	-433.93997	-58.57459	846.77337	-416.79408	-102.65625	818.77233	-375.55466	-176.82072	944.35534	-375.00842	-158.77207	828.57411	-376.18412	-90.11004	948.29889	-753.15777	-52.70856	814.20733	-761.87787	-202.86889	917.66798	-759.81018	-157.65721	783.50181	-763.23610	-97.57393	1093.54238	-448.50391	-274.58272	1130.25793	-511.46958	-102.44646	1101.05960	-696.31648	-280.17483	1129.54518	-618.76760	-153.80774	1576.70970	-521.73745	-98.91404	1506.20989	-384.29235	-97.16431	1547.20733	-681.51286	-34.68568	1489.19925	-516.06823	-33.90576	1495.27895	-558.21346	-67.02916	1267.94114	-330.45115	-115.30854	1161.64218	-381.71747	-72.93094	1180.20690	-319.95320	28.25648	1140.73081	-379.52467	109.84981	1093.20930	-447.17578	105.19723	1054.74286	-426.66798	-66.06684	1441.03102	-762.50745	-145.24395	1229.34797	-805.11064	-106.26493	1254.24695	-860.78968	-12.10192	1222.44854	-795.42516	58.94959	1166.78477	-710.20918	69.75669	1141.92948	-735.48423	-167.74733	1025.07607	-472.06678	-169.43695	1033.33633	-672.18164	-165.16452	1025.65263	-479.28303	-173.68090	1024.56561	-642.72116	
191	1.90000000	-105.84471	625.36843	-406.83713	-104.66531	553.09334	-380.18221	-157.67392	247.47939	-406.08508	-228.18608	228.56329	-448.65044	-70.11874	168.88044	-378.73532	-20.18829	183.38336	-429.65654	-83.51051	636.19133	-755.43314	-64.31002	565.41918	-762.77799	-172.10170	273.26607	-730.93171	-244.74855	257.11473	-678.36841	-98.37233	192.98965	-756.83146	-40.85533	206.19508	-708.45681	-119.81628	441.03831	-372.01408	-175.36039	560.82052	-400.63417	-197.95408	446.58117	-397.90080	-149.11247	594.61503	-769.83084	-176.13448	475.46306	-769.38177	-79.72059	936.46285	-434.40800	-58.18052	827.63880	-417.33928	-102.38917	799.70683	-375.77486	-176.91923	925.22075	-375.26817	-158.38416	809.46719	-375.98856	-90.56376	930.44758	-753.34840	-51.64953	796.95544	-762.87310	-202.96546	898.65834	-760.76766	-156.19832	765.03327	-764.41495	-97.82025	1073.74720	-449.18839	-274.68146	1111.78486	-511.02365	-103.53072	1081.89820	-696.41086	-280.69088	1111.43030	-618.65760	-151.52832	1556.52320	-521.10558	-95.68437	1486.22459	-384.11746	-96.03149	1527.72934	-681.34027	-32.04817	1468.97289	-515.81403	-32.16524	1475.79440	-557.84805	-60.93800	1248.88414	-329.67974	-108.79159	1141.64748	-379.63286	-65.50945	1161.38392	-318.51416	35.97080	1127.50452	-380.45468	118.27769	1085.42491	-450.84897	115.88743	1046.22533	-430.61531	-66.48225	1422.06715	-763.70439	-145.24633	1210.14266	-805.15647	-108.63084	1235.83912	-862.60651	-11.93368	1208.12885	-798.60633	62.34776	1157.35571	-713.31486	73.27608	1131.83010	-738.11599	-168.50783	1005.80195	-472.41900	-170.83849	1014.58021	-672.50590	-165.90731	1006.47664	-479.83478	-175.01158	1005.93962	-642.87824	
192	1.91000000	-104.95146	605.62122	-405.70470	-105.67564	533.48001	-378.97814	-158.90983	228.20564	-405.26123	-228.80598	210.03559	-449.18564	-72.67769	148.53636	-376.49078	-21.80837	162.39776	-426.89483	-80.15305	617.61085	-756.67853	-60.32023	546.90323	-764.24496	-167.98102	254.72389	-732.25976	-240.83737	237.87445	-680.12266	-93.60094	175.42736	-758.13589	-36.40160	188.96556	-709.48167	-121.39805	421.15492	-371.73874	-175.77195	541.64459	-401.28493	-198.94690	427.26808	-399.09634	-145.03051	576.06429	-771.47641	-171.86105	456.92044	-771.19066	-80.21879	916.47709	-434.86531	-57.75730	807.76176	-417.39336	-102.04405	779.96847	-375.44769	-177.31718	905.04086	-375.27915	-157.99839	789.35635	-375.69078	-91.10405	911.61635	-753.64129	-50.68772	778.78290	-763.69405	-203.15581	878.74349	-761.51300	-154.86198	745.63345	-765.33166	-98.71846	1053.22348	-449.29892	-275.22929	1092.36643	-510.66590	-104.72749	1061.83121	-696.35818	-281.48547	1092.28363	-618.45088	-148.60344	1535.35727	-520.50593	-91.94910	1465.17056	-384.13302	-94.46282	1507.09221	-681.23809	-29.27533	1447.66362	-516.23577	-29.93775	1455.12628	-559.20389	-54.83201	1228.75323	-328.58118	-101.50999	1120.50743	-377.78537	-57.71644	1141.67139	-316.98142	43.76412	1113.87565	-381.09492	126.73853	1077.82122	-454.02417	126.70334	1037.95708	-434.61111	-66.53912	1401.84589	-764.86763	-145.53399	1189.75820	-805.79915	-110.61040	1216.39694	-864.53125	-11.89328	1193.00256	-801.64060	65.78415	1147.56326	-716.34570	76.84109	1121.54506	-740.92528	-169.75590	985.71772	-472.48291	-172.33422	994.86905	-672.54955	-167.12093	986.38919	-479.92513	-176.57869	986.26462	-642.85701	
193	1.92000000	-103.41354	584.89655	-404.72278	-105.65049	512.94678	-377.66568	-160.79774	208.29034	-404.92481	-229.94136	190.82157	-450.07932	-75.83008	127.67669	-374.55440	-24.07418	141.14439	-424.11769	-76.36484	598.44226	-758.04635	-55.74406	527.71685	-765.60697	-163.72324	235.66625	-733.97111	-236.82079	218.21166	-682.27843	-88.70450	157.10870	-759.67351	-31.94285	170.92766	-710.55836	-122.42978	400.48882	-371.01921	-175.25771	521.75833	-401.77579	-199.10934	407.35774	-400.07606	-140.38243	556.69976	-773.21541	-166.87126	437.62093	-773.29150	-80.96290	895.89118	-434.89244	-57.53754	787.61934	-416.74605	-101.49238	759.59099	-374.57747	-178.06753	883.82784	-375.10454	-157.63535	768.23060	-375.29845	-91.64982	891.97898	-754.31502	-49.67433	759.66277	-764.42656	-203.30961	857.79463	-761.90232	-153.44335	725.32432	-766.22531	-100.02385	1031.47147	-449.75076	-276.25781	1071.99912	-510.60267	-106.04623	1040.78253	-696.35103	-282.52907	1072.14117	-618.27517	-145.06730	1513.21304	-519.94728	-87.91820	1443.00780	-384.41907	-92.46537	1485.10100	-681.09511	-26.25638	1425.00748	-516.59899	-27.27065	1432.89060	-560.25005	-48.50623	1207.82968	-327.35875	-93.48544	1098.38545	-376.22371	-49.50980	1121.10326	-315.64888	51.75136	1099.72445	-381.48496	135.15272	1070.23438	-456.82897	137.48903	1029.90999	-438.47330	-66.20440	1380.42931	-765.88281	-145.65229	1168.22592	-806.40026	-112.31222	1195.73503	-866.11864	-11.98865	1177.12930	-804.66619	68.91018	1137.27190	-719.64504	80.38138	1110.97917	-743.92805	-171.44771	964.49834	-472.79263	-174.12606	974.20797	-672.83039	-168.89782	965.43476	-480.39723	-178.37042	965.64948	-643.04349	
194	1.93000000	-100.80788	563.44639	-403.65950	-104.24713	491.55097	-376.04861	-163.02486	187.67421	-404.85281	-231.12545	171.25619	-450.92233	-79.44192	105.18667	-373.27720	-26.93191	118.40131	-421.63489	-72.00133	578.68751	-759.41104	-50.57647	507.84204	-767.01197	-159.42160	216.04657	-735.83362	-232.91212	198.36485	-684.66920	-83.95384	138.12846	-761.37999	-27.60865	152.21262	-711.62892	-122.61741	379.14918	-369.95548	-173.25089	501.07447	-401.66747	-198.48075	387.20424	-400.42263	-135.16226	536.82678	-775.21094	-161.80557	417.74403	-775.30843	-82.27298	874.75362	-434.29919	-57.43195	767.20465	-415.55931	-100.74106	738.40555	-373.50942	-179.19195	861.41145	-374.80423	-157.13359	746.04919	-374.68808	-92.21730	871.57118	-755.04085	-48.49924	739.69710	-765.08845	-203.39895	835.81882	-762.35639	-151.72050	704.07421	-767.21033	-101.62467	1008.37499	-450.74816	-277.74911	1050.59813	-510.88457	-107.63467	1018.60589	-696.27582	-283.84642	1051.02145	-618.38786	-141.10311	1490.00272	-519.47068	-83.73628	1419.64410	-384.88976	-89.83224	1461.55809	-680.68045	-23.01548	1400.92781	-516.75262	-24.29568	1408.98813	-560.17545	-41.69057	1186.44964	-326.12882	-84.94514	1075.63286	-374.54647	-40.78164	1099.86819	-314.59835	60.03312	1085.25243	-382.01259	143.47574	1062.54691	-459.33440	148.22237	1021.98929	-441.76567	-65.42246	1357.81924	-766.65151	-145.17635	1145.50950	-806.83955	-113.76744	1173.75377	-867.39174	-12.09223	1160.48287	-807.70946	71.65678	1126.45276	-723.17958	83.92372	1100.05360	-747.09833	-173.61580	942.05839	-473.44646	-176.29239	952.49645	-673.44803	-171.19372	943.46578	-481.45174	-180.38001	944.10338	-643.42816	
195	1.94000000	-97.05388	541.47194	-402.63734	-101.73546	469.46540	-374.42048	-163.69289	166.18480	-404.21530	-231.37506	152.88477	-451.43001	-82.85894	80.55292	-372.91170	-29.61705	92.92564	-420.46868	-66.97010	558.32520	-760.71695	-44.89327	487.29854	-768.52716	-155.49558	196.13085	-737.65666	-229.33137	178.43228	-687.12216	-79.76163	118.40029	-762.96671	-23.69087	132.85553	-712.76555	-121.68161	357.16783	-369.24629	-170.16260	479.91885	-400.90692	-197.32799	366.80696	-399.94718	-129.39740	516.63556	-777.46991	-156.64370	397.50778	-777.46868	-84.35216	852.78531	-433.30998	-57.09884	746.01514	-414.15656	-99.92224	716.33081	-372.39608	-180.76092	837.72515	-374.49377	-156.45895	722.89463	-373.73324	-92.87763	850.27602	-755.39321	-47.03402	719.12862	-765.65880	-203.43835	812.78400	-763.31357	-149.51545	681.81216	-768.19608	-103.84655	984.27087	-451.39437	-279.64687	1028.09482	-511.30557	-109.65032	995.11428	-695.52576	-285.49010	1028.84970	-618.77372	-136.87198	1465.62100	-519.20556	-79.25575	1395.09465	-385.28324	-86.38376	1436.57215	-680.06563	-19.57398	1375.49030	-516.81291	-21.06423	1383.64584	-559.92260	-34.40743	1164.32667	-324.45078	-75.69874	1052.30946	-372.74001	-31.43241	1077.85133	-313.57206	68.56666	1070.69642	-382.93783	151.73058	1054.77356	-461.59747	159.13255	1014.17604	-444.76789	-64.10509	1333.93461	-767.23516	-143.99818	1121.46400	-807.25413	-114.71284	1150.41304	-868.40838	-11.95338	1142.85868	-810.66165	74.30851	1115.02733	-726.64934	87.52776	1088.74656	-750.29444	-176.48830	918.61335	-473.79584	-178.72454	929.53012	-673.77817	-173.99392	920.35648	-482.18991	-182.75456	921.48775	-643.27819	
196	1.95000000	-92.66049	519.23639	-401.79323	-98.24717	446.99909	-373.50105	-163.63536	144.44650	-403.13282	-233.06282	134.10997	-451.51134	-85.93266	58.22065	-373.14688	-32.29670	69.54070	-421.39931	-61.17572	537.41866	-762.26384	-38.92581	466.16333	-770.03355	-151.78739	176.00932	-739.71248	-225.37635	158.71270	-689.61287	-75.97491	96.97391	-764.32794	-20.07702	111.66741	-714.12688	-119.13448	334.84848	-368.38001	-166.64062	458.29730	-399.94651	-195.06878	345.40546	-398.85155	-123.20579	496.18004	-779.77694	-151.12017	377.19825	-780.03200	-86.71985	829.93948	-432.61352	-56.47136	723.85971	-412.97026	-99.13863	693.54493	-371.19767	-182.83037	813.06785	-374.13945	-155.75116	698.95650	-372.49965	-93.69178	828.16979	-755.49062	-45.09122	698.16976	-766.19921	-203.42226	788.58603	-764.75188	-146.64301	658.63633	-769.39493	-106.86757	959.12729	-451.14506	-281.94322	1004.61912	-511.76271	-111.97026	970.32976	-694.26868	-287.44944	1005.60909	-619.23057	-132.49724	1439.98461	-519.11268	-74.29947	1369.62071	-385.46150	-82.24629	1410.38201	-679.58038	-15.88508	1348.67911	-516.75103	-17.52187	1356.97039	-559.71760	-26.82710	1141.17562	-322.35319	-65.42519	1028.05781	-371.33313	-21.44126	1054.78325	-312.51583	77.37634	1055.74165	-383.80423	159.96331	1046.87842	-463.70150	170.28528	1006.47301	-448.05258	-62.17247	1308.68920	-767.72471	-142.03442	1096.03517	-807.69067	-114.78715	1125.66930	-869.12526	-11.33891	1124.12231	-813.47478	77.06875	1102.92312	-729.92778	91.27605	1076.96307	-753.33215	-180.17504	894.19156	-473.66127	-181.38865	905.32809	-673.63941	-177.45843	896.13484	-482.09899	-185.68100	897.61259	-642.54990	
